<?xml version="1.0" standalone="no"?><!DOCTYPE svg PUBLIC "-//W3C//DTD SVG 1.1//EN" "http://www.w3.org/Graphics/SVG/1.1/DTD/svg11.dtd"><svg class="icon" height="512" viewBox="0 0 1024 1024" version="1.1" xmlns="http://www.w3.org/2000/svg"><path d="M810.666667 128C857.6 128 896 166.4 896 213.333333L896 810.666667C896 858.026667 857.6 896 810.666667 896L213.333333 896C166.4 896 128 857.6 128 810.666667L128 213.333333C128 166.4 166.4 128 213.333333 128L810.666667 128M512 213.333333C346.88 213.333333 213.333333 346.88 213.333333 512 213.333333 677.12 346.88 810.666667 512 810.666667 677.12 810.666667 810.666667 677.12 810.666667 512 810.666667 346.88 677.12 213.333333 512 213.333333M298.666667 512 426.666667 384 426.666667 469.333333 597.333333 469.333333 597.333333 384 725.333333 512 597.333333 640 597.333333 554.666667 426.666667 554.666667 426.666667 640 298.666667 512Z" /></svg>